<svg width="150" height="112" viewBox="0 0 150 112" fill="none" xmlns="http://www.w3.org/2000/svg">
<path d="M26.0501 111.93C22.9801 109.31 -1.30994 87.85 0.0600573 53.08C1.29006 21.69 22.5001 3.02 26.0501 0C21.1201 10.04 13.2701 29.39 13.0501 54.88C12.8201 81.57 21.0801 101.8 26.0501 111.93Z" fill="#4C86C6"/>
<path d="M123.05 111.93C126.12 109.31 150.41 87.85 149.05 53.08C147.81 21.69 126.6 3.02 123.05 0C127.98 10.04 135.83 29.39 136.05 54.88C136.28 81.57 128.02 101.8 123.05 111.93Z" fill="#4C86C6"/>
<path d="M38.6901 22.39C40.0701 20.61 52.0201 5.78003 72.6301 5.78003C93.2401 5.78003 105.19 20.61 106.57 22.39C99.6601 19.65 88.9401 16.36 75.5201 15.94C59.1201 15.43 46.1801 19.43 38.6901 22.39Z" fill="#4C86C6"/>
<path d="M38.6901 88.14C40.0701 89.92 52.0201 104.75 72.6301 104.75C93.2401 104.75 105.19 89.92 106.57 88.14C99.6601 90.88 88.9401 94.17 75.5201 94.59C59.1201 95.1 46.1801 91.1 38.6901 88.14Z" fill="#4C86C6"/>
<path d="M83.94 55.26C83.94 50.074 79.736 45.87 74.55 45.87C69.3641 45.87 65.16 50.074 65.16 55.26C65.16 60.4459 69.3641 64.65 74.55 64.65C79.736 64.65 83.94 60.4459 83.94 55.26Z" fill="#C2E5F4"/>
</svg>
